<svg width="25" height="32" viewBox="0 0 25 32" version="1.1" xmlns="http://www.w3.org/2000/svg" xmlns:xlink="http://www.w3.org/1999/xlink">
<title>Page 1</title>
<desc>Created using Figma</desc>
<g id="Canvas" transform="translate(-835 -696)">
<g id="Page 1">
<g id="Stroke 1">
<use xlink:href="#path0_stroke" transform="translate(836 700.001)" fill="#FF0000"/>
</g>
<g id="Stroke 3">
<use xlink:href="#path1_stroke" transform="translate(846.188 706.001)" fill="#FF0000"/>
</g>
<g id="Stroke 5">
<use xlink:href="#path2_stroke" transform="translate(836 706.001)" fill="#FF0000"/>
</g>
<g id="Stroke 7">
<use xlink:href="#path3_stroke" transform="translate(844.25 697)" fill="#FF0000"/>
</g>
<g id="Stroke 9">
<use xlink:href="#path4_stroke" transform="translate(836 706.001)" fill="#FF0000"/>
</g>
<g id="Stroke 11">
<use xlink:href="#path5_stroke" transform="translate(847.25 710.125)" fill="#FF0000"/>
</g>
<g id="Stroke 13">
<use xlink:href="#path6_stroke" transform="translate(841.999 710.125)" fill="#FF0000"/>
</g>
<g id="Stroke 15">
<use xlink:href="#path7_stroke" transform="translate(851.751 710.125)" fill="#FF0000"/>
</g>
</g>
</g>
<defs>
<path id="path0_stroke" d="M 21.5 3.75C 21.5 4.30228 21.9477 4.75 22.5 4.75C 23.0523 4.75 23.5 4.30228 23.5 3.75L 21.5 3.75ZM -1 3.75C -1 4.30228 -0.552285 4.75 0 4.75C 0.552285 4.75 1 4.30228 1 3.75L -1 3.75ZM 23.5 3.75C 23.5 1.12622 21.3738 -1 18.75 -1L 18.75 1C 20.2692 1 21.5 2.23078 21.5 3.75L 23.5 3.75ZM 18.75 -1L 3.75 -1L 3.75 1L 18.75 1L 18.75 -1ZM 3.75 -1C 1.1271 -1 -1 1.12608 -1 3.75L 1 3.75C 1 2.23091 2.2314 1 3.75 1L 3.75 -1Z"/>
<path id="path1_stroke" d="M 0 19.9993C -0.552285 19.9993 -1 20.447 -1 20.9993C -1 21.5515 -0.552285 21.9993 0 21.9993L 0 19.9993ZM 10.062 17.2493L 11.0527 17.3856L 11.0536 17.3786L 10.062 17.2493ZM 13.3036 0.129345C 13.375 -0.418301 12.989 -0.920165 12.4413 -0.9916C 11.8937 -1.06303 11.3918 -0.67699 11.3204 -0.129345L 13.3036 0.129345ZM 0 21.9993L 6.312 21.9993L 6.312 19.9993L 0 19.9993L 0 21.9993ZM 6.312 21.9993C 9.03117 21.9993 10.7108 19.8705 11.0527 17.3855L 9.07133 17.113C 8.82072 18.9345 7.73432 19.9993 6.312 19.9993L 6.312 21.9993ZM 11.0536 17.3786L 13.3036 0.129345L 11.3204 -0.129345L 9.0704 17.1199L 11.0536 17.3786Z"/>
<path id="path2_stroke" d="M 0 -1C -0.552285 -1 -1 -0.552285 -1 0C -1 0.552285 -0.552285 1 0 1L 0 -1ZM 22.5 1C 23.0523 1 23.5 0.552285 23.5 0C 23.5 -0.552285 23.0523 -1 22.5 -1L 22.5 1ZM 0 1L 22.5 1L 22.5 -1L 0 -1L 0 1Z"/>
<path id="path3_stroke" d="M 6 1C 6.55228 1 7 0.552285 7 0C 7 -0.552285 6.55228 -1 6 -1L 6 1ZM 0 -1C -0.552285 -1 -1 -0.552285 -1 0C -1 0.552285 -0.552285 1 0 1L 0 -1ZM 6 -1L 0 -1L 0 1L 6 1L 6 -1Z"/>
<path id="path4_stroke" d="M 10.188 21.9993C 10.7403 21.9993 11.188 21.5515 11.188 20.9993C 11.188 20.447 10.7403 19.9993 10.188 19.9993L 10.188 21.9993ZM 2.25075 17.2493L 1.25913 17.3786L 1.26008 17.3855L 2.25075 17.2493ZM 0.991594 -0.129387C 0.920136 -0.677029 0.418255 -1.06305 -0.129387 -0.991594C -0.677029 -0.920136 -1.06305 -0.418255 -0.991594 0.129387L 0.991594 -0.129387ZM 10.188 19.9993L 6.00075 19.9993L 6.00075 21.9993L 10.188 21.9993L 10.188 19.9993ZM 6.00075 19.9993C 4.57779 19.9993 3.49205 18.9346 3.24142 17.113L 1.26008 17.3855C 1.60195 19.8704 3.28071 21.9993 6.00075 21.9993L 6.00075 19.9993ZM 3.24234 17.1199L 0.991594 -0.129387L -0.991594 0.129387L 1.25916 17.3786L 3.24234 17.1199Z"/>
<path id="path5_stroke" d="M 1 0C 1 -0.552285 0.552285 -1 0 -1C -0.552285 -1 -1 -0.552285 -1 0L 1 0ZM -1 12.75C -1 13.3023 -0.552285 13.75 0 13.75C 0.552285 13.75 1 13.3023 1 12.75L -1 12.75ZM -1 0L -1 12.75L 1 12.75L 1 0L -1 0Z"/>
<path id="path6_stroke" d="M 0.998274 -0.058722C 0.965843 -0.610054 0.49261 -1.03071 -0.058722 -0.998274C -0.610054 -0.965843 -1.03071 -0.49261 -0.998274 0.058722L 0.998274 -0.058722ZM -0.248274 12.8087C -0.215843 13.3601 0.25739 13.7807 0.808722 13.7483C 1.36005 13.7158 1.78071 13.2426 1.74827 12.6913L -0.248274 12.8087ZM -0.998274 0.058722L -0.248274 12.8087L 1.74827 12.6913L 0.998274 -0.058722L -0.998274 0.058722Z"/>
<path id="path7_stroke" d="M 1.74827 0.058722C 1.78071 -0.49261 1.36005 -0.965843 0.808722 -0.998274C 0.25739 -1.03071 -0.215843 -0.610054 -0.248274 -0.058722L 1.74827 0.058722ZM -0.998274 12.6913C -1.03071 13.2426 -0.610054 13.7158 -0.058722 13.7483C 0.49261 13.7807 0.965843 13.3601 0.998274 12.8087L -0.998274 12.6913ZM -0.248274 -0.058722L -0.998274 12.6913L 0.998274 12.8087L 1.74827 0.058722L -0.248274 -0.058722Z"/>
</defs>
</svg>
