<svg width="31" height="31" viewBox="0 0 31 31" version="1.1" xmlns="http://www.w3.org/2000/svg" xmlns:xlink="http://www.w3.org/1999/xlink">
<title>Page 1</title>
<desc>Created using Figma</desc>
<g id="Canvas" transform="translate(-198 -397)">
<g id="Page 1">
<use xlink:href="#path0_fill" transform="translate(199 398.429)"/>
<use xlink:href="#path1_stroke" transform="translate(199 398.429)"/>
</g>
</g>
<defs>
<path id="path0_fill" fill-rule="evenodd" d="M 14.2857 0L 18.07 10.3171L 28.5714 10.9129L 20.4079 17.885L 23.1143 28.5714L 14.2857 22.5636L 5.45643 28.5714L 8.16357 17.885L 0 10.9129L 10.5014 10.3171L 14.2857 0Z"/>
<path id="path1_stroke" d="M 14.2857 0L 15.2246 -0.344362C 15.0801 -0.73819 14.7052 -1 14.2857 -1C 13.8662 -1 13.4913 -0.73819 13.3469 -0.344362L 14.2857 0ZM 18.07 10.3171L 17.1312 10.6615C 17.2685 11.0359 17.6152 11.2929 18.0134 11.3155L 18.07 10.3171ZM 28.5714 10.9129L 29.2209 11.6733C 29.5315 11.408 29.6495 10.9805 29.5191 10.5935C 29.3886 10.2064 29.0359 9.9376 28.6281 9.91446L 28.5714 10.9129ZM 20.4079 17.885L 19.7584 17.1246C 19.4691 17.3717 19.345 17.7616 19.4385 18.1305L 20.4079 17.885ZM 23.1143 28.5714L 22.5517 29.3982C 22.8951 29.6319 23.3473 29.6289 23.6877 29.3907C 24.028 29.1525 24.1857 28.7286 24.0837 28.3259L 23.1143 28.5714ZM 14.2857 22.5636L 14.8483 21.7368C 14.5088 21.5058 14.0626 21.5058 13.7232 21.7368L 14.2857 22.5636ZM 5.45643 28.5714L 4.48705 28.3259C 4.38503 28.7286 4.54263 29.1524 4.88298 29.3907C 5.22333 29.6289 5.67552 29.6319 6.01899 29.3982L 5.45643 28.5714ZM 8.16357 17.885L 9.13295 18.1306C 9.2264 17.7617 9.10238 17.3717 8.81301 17.1246L 8.16357 17.885ZM 0 10.9129L -0.0566359 9.91446C -0.46443 9.9376 -0.817167 10.2064 -0.947622 10.5935C -1.07808 10.9805 -0.960028 11.408 -0.649437 11.6733L 0 10.9129ZM 10.5014 10.3171L 10.5581 11.3155C 10.9562 11.2929 11.3029 11.0359 11.4403 10.6615L 10.5014 10.3171ZM 13.3469 0.344362L 17.1312 10.6615L 19.0088 9.97278L 15.2246 -0.344362L 13.3469 0.344362ZM 18.0134 11.3155L 28.5148 11.9113L 28.6281 9.91446L 18.1266 9.31875L 18.0134 11.3155ZM 27.922 10.1524L 19.7584 17.1246L 21.0573 18.6454L 29.2209 11.6733L 27.922 10.1524ZM 19.4385 18.1305L 22.1449 28.8169L 24.0837 28.3259L 21.3773 17.6395L 19.4385 18.1305ZM 23.6769 27.7447L 14.8483 21.7368L 13.7231 23.3903L 22.5517 29.3982L 23.6769 27.7447ZM 13.7232 21.7368L 4.89387 27.7447L 6.01899 29.3982L 14.8483 23.3903L 13.7232 21.7368ZM 6.42581 28.817L 9.13295 18.1306L 7.19419 17.6394L 4.48705 28.3259L 6.42581 28.817ZM 8.81301 17.1246L 0.649437 10.1524L -0.649437 11.6733L 7.51413 18.6454L 8.81301 17.1246ZM 0.0566359 11.9113L 10.5581 11.3155L 10.4448 9.31875L -0.0566359 9.91446L 0.0566359 11.9113ZM 11.4403 10.6615L 15.2246 0.344362L 13.3469 -0.344362L 9.56259 9.97278L 11.4403 10.6615Z"/>
</defs>
</svg>
